<svg xmlns="http://www.w3.org/2000/svg" xmlns:xlink="http://www.w3.org/1999/xlink" width="45" height="46" viewBox="0 0 45 46">
    <defs>
        <path id="bbasj2p9na" d="M0 0.312L44.685 0.312 44.685 44.634 0 44.634z"/>
    </defs>
    <g fill="none" fill-rule="evenodd">
        <g>
            <g>
                <g>
                    <path fill="#FFF" d="M30.754 27.003c0 2.163-1.77 3.92-3.951 3.92h-8.922c-2.18 0-3.951-1.757-3.951-3.92v-8.849c0-2.164 1.77-3.919 3.95-3.919h8.923c2.181 0 3.951 1.755 3.951 3.92v8.848zm-4.052-14.702h-8.718c-3.287 0-5.952 2.643-5.952 5.903v8.646c0 3.263 2.665 5.902 5.952 5.902h8.718c3.288 0 5.951-2.64 5.951-5.902v-8.646c0-3.26-2.663-5.903-5.951-5.903z" transform="translate(-1338 -7277) translate(0 7200) translate(1338 77)"/>
                    <path fill="#FFF" d="M22.342 26.018c-1.914 0-3.468-1.54-3.468-3.44s1.554-3.44 3.468-3.44c1.916 0 3.469 1.54 3.469 3.44s-1.553 3.44-3.47 3.44m0-8.747c-2.955 0-5.349 2.377-5.349 5.308 0 2.929 2.394 5.306 5.35 5.306 2.954 0 5.352-2.377 5.352-5.306 0-2.931-2.398-5.308-5.352-5.308M27.872 15.833c-.687 0-1.247.553-1.247 1.236 0 .684.56 1.236 1.247 1.236.69 0 1.247-.552 1.247-1.236 0-.683-.558-1.236-1.247-1.236" transform="translate(-1338 -7277) translate(0 7200) translate(1338 77)"/>
                    <g transform="translate(-1338 -7277) translate(0 7200) translate(1338 77) translate(0 .053)">
                        <mask id="cd6o5edr4b" fill="#fff">
                            <use xlink:href="#bbasj2p9na"/>
                        </mask>
                        <path fill="#FFF" d="M22.343 2.142c-11.303 0-20.499 9.12-20.499 20.331s9.196 20.332 20.499 20.332c11.302 0 20.498-9.121 20.498-20.332 0-11.21-9.196-20.331-20.498-20.331m0 42.492C10.023 44.634 0 34.693 0 22.474 0 10.253 10.023.311 22.343.311s22.342 9.942 22.342 22.161c0 12.22-10.023 22.161-22.342 22.161" mask="url(#cd6o5edr4b)"/>
                    </g>
                </g>
            </g>
        </g>
    </g>
</svg>
