<svg xmlns="http://www.w3.org/2000/svg" xmlns:xlink="http://www.w3.org/1999/xlink" width="45" height="45" viewBox="0 0 45 45">
    <defs>
        <path id="hp37ts2lza" d="M0 0.312L44.685 0.312 44.685 44.634 0 44.634z"/>
    </defs>
    <g fill="none" fill-rule="evenodd">
        <g>
            <g>
                <g>
                    <path fill="#FFF" d="M23.745 20.434c-.515 0-.93.411-.93.923 0 .51.415.922.93.922.515 0 .93-.412.93-.922 0-.512-.415-.923-.93-.923M29.326 20.434c-.513 0-.93.411-.93.923 0 .51.417.922.93.922.515 0 .93-.412.93-.922 0-.512-.415-.923-.93-.923" transform="translate(-1521 -7277) translate(0 7200) translate(1521 77)"/>
                    <path fill="#FFF" d="M31.601 23.34c0 2.268-2.117 2.245-2.117 2.245h-.565v-1.273h.35c1.026 0 .923-1.051.923-1.051v-.335c-.452.58-1.273.549-1.273.549-2.015 0-1.993-2.134-1.993-2.134 0-2.288 2.049-2.2 2.049-2.2.8 0 1.217.547 1.217.547v-.407h1.41v4.06zm-5.407-1.983c0 2.185-2.45 2.19-2.45 2.19-2.47 0-2.394-2.19-2.394-2.19 0-2.216 2.395-2.216 2.395-2.216 2.53 0 2.45 2.216 2.45 2.216zm-5.865-1.834v3.872h-1.397v-3.543c0-1.223-.66-1.194-.66-1.194V17.27c2.118 0 2.057 2.253 2.057 2.253zm-4.564 4.023c-.873 0-1.218-.62-1.218-.62v.469h-1.463v-5.987h1.447v2.28c.587-.568 1.234-.568 1.234-.568 1.965 0 2.04 2.187 2.04 2.187 0 2.162-2.04 2.24-2.04 2.24zm14.673-10.895H14.245c-2.066 0-3.738 1.669-3.738 3.722v8.83c0 2.053 1.672 3.719 3.738 3.719h5.579l1.903 3.073s.02.038.06.088c.113.19.318.32.555.32.236 0 .438-.13.55-.315.049-.055.065-.093.065-.093l1.902-3.073h5.579c2.064 0 3.74-1.666 3.74-3.72v-8.829c0-2.053-1.676-3.722-3.74-3.722z" transform="translate(-1521 -7277) translate(0 7200) translate(1521 77)"/>
                    <path fill="#FFF" d="M15.445 20.434c-.515 0-.93.411-.93.923 0 .51.415.922.93.922.514 0 .93-.412.93-.922 0-.512-.416-.923-.93-.923" transform="translate(-1521 -7277) translate(0 7200) translate(1521 77)"/>
                    <g transform="translate(-1521 -7277) translate(0 7200) translate(1521 77) translate(0 .053)">
                        <mask id="tq1siwvqob" fill="#fff">
                            <use xlink:href="#hp37ts2lza"/>
                        </mask>
                        <path fill="#FFF" d="M22.343 2.142c-11.303 0-20.499 9.12-20.499 20.331s9.196 20.332 20.499 20.332c11.302 0 20.498-9.121 20.498-20.332 0-11.21-9.196-20.331-20.498-20.331m0 42.492C10.023 44.634 0 34.693 0 22.474 0 10.253 10.023.311 22.343.311s22.342 9.942 22.342 22.161c0 12.22-10.023 22.161-22.342 22.161" mask="url(#tq1siwvqob)"/>
                    </g>
                </g>
            </g>
        </g>
    </g>
</svg>
