<svg xmlns="http://www.w3.org/2000/svg" xmlns:xlink="http://www.w3.org/1999/xlink" width="45" height="45" viewBox="0 0 45 45">
    <defs>
        <path id="7kif9zekza" d="M0 0.312L44.685 0.312 44.685 44.634 0 44.634z"/>
    </defs>
    <g fill="none" fill-rule="evenodd">
        <g>
            <g>
                <g>
                    <path fill="#FFF" d="M20.123 24.88v-4.707l4.439 2.299-4.44 2.409zm11.197-6.493c-.354-1.404-1.016-1.943-2.234-2.137-.7-.103-4.069-.235-6.744-.235s-6.043.132-6.743.235c-1.218.194-1.882.736-2.232 2.137-.12.468-.283 3.049-.283 4.031v.218c0 .983.163 3.562.283 4.033.35 1.4 1.014 1.94 2.232 2.134.7.104 4.073.234 6.75.234l-.013.001c2.678 0 6.048-.131 6.75-.235 1.218-.194 1.88-.734 2.234-2.134.118-.47.281-3.05.281-4.033v-.218c0-.982-.163-3.563-.28-4.031z" transform="translate(-1460 -7277) translate(0 7200) translate(1460 77)"/>
                    <g transform="translate(-1460 -7277) translate(0 7200) translate(1460 77) translate(0 .054)">
                        <mask id="yvyw5hkasb" fill="#fff">
                            <use xlink:href="#7kif9zekza"/>
                        </mask>
                        <path fill="#FFF" d="M22.343 2.141c-11.303 0-20.499 9.121-20.499 20.332s9.196 20.332 20.499 20.332c11.302 0 20.498-9.12 20.498-20.332 0-11.21-9.196-20.332-20.498-20.332m0 42.493C10.023 44.634 0 34.693 0 22.473S10.023.313 22.343.313s22.342 9.94 22.342 22.16-10.023 22.161-22.342 22.161" mask="url(#yvyw5hkasb)"/>
                    </g>
                </g>
            </g>
        </g>
    </g>
</svg>
