<svg xmlns="http://www.w3.org/2000/svg" width="120" height="32" viewBox="0 0 120 32">
    <g fill="none" fill-rule="evenodd">
        <g fill="#FF6F64">
            <g>
                <g>
                    <path d="M22.955 12.38c-2.612 0-4.73-2.117-4.73-4.728 0-2.612 2.118-4.73 4.73-4.73 2.612 0 4.729 2.118 4.729 4.73 0 2.611-2.117 4.728-4.73 4.728m0-12.38c-2.136 0-4.067.876-5.454 2.29-1.55 1.577-3.688 2.438-5.9 2.438h-.285c-1.501 0-2.952-.447-4.256-1.19-.688-.391-1.483-.615-2.33-.615C2.116 2.923 0 5.04 0 7.652c0 2.611 2.117 4.728 4.728 4.728.848 0 1.643-.224 2.33-.615 1.305-.743 2.756-1.19 4.257-1.19h.286c2.211 0 4.348.861 5.899 2.44 1.387 1.412 3.318 2.288 5.455 2.288 4.226 0 7.652-3.426 7.652-7.651C30.607 3.426 27.18 0 22.955 0M11.668 28.804c-2.612 0-4.73-2.117-4.73-4.729 0-2.611 2.118-4.728 4.73-4.728 2.612 0 4.729 2.117 4.729 4.728 0 2.612-2.117 4.73-4.73 4.73m18.227-9.458c-.88 0-1.701.24-2.405.66-1.186.704-2.51 1.145-3.89 1.145h-.858c-2.14 0-4.132-.938-5.637-2.459-1.386-1.401-3.31-2.269-5.436-2.269-4.226 0-7.652 3.425-7.652 7.651s3.426 7.652 7.652 7.652c2.126 0 4.05-.868 5.436-2.27 1.505-1.52 3.497-2.459 5.637-2.459h.858c1.38 0 2.704.442 3.89 1.147.704.419 1.526.66 2.405.66 2.611 0 4.729-2.118 4.729-4.73 0-2.611-2.118-4.728-4.729-4.728M54.336 6.65c1.181 0 2.138-.958 2.138-2.138s-.957-2.137-2.138-2.137h-13.96c-1.18 0-2.137.956-2.137 2.137 0 1.18.956 2.138 2.137 2.138h4.842v14.592c0 1.181.958 2.138 2.139 2.138 1.18 0 2.137-.957 2.137-2.138V6.65h4.842z" transform="translate(-24 -25) translate(24 23) translate(0 2)"/>
                    <path d="M58.988 19.105c-1.652 0-2.996-1.452-2.996-3.236 0-1.784 1.344-3.236 2.996-3.236 1.653 0 2.997 1.452 2.997 3.236 0 1.784-1.344 3.236-2.997 3.236m0-10.747c-4.01 0-7.27 3.37-7.27 7.511 0 4.142 3.26 7.511 7.27 7.511s7.272-3.369 7.272-7.511c0-4.141-3.262-7.511-7.272-7.511M110.759 13.724c-.5 0-.736-.637-.345-.948.543-.43 1.213-.686 1.938-.686.725 0 1.396.256 1.938.686.39.31.155.948-.345.948h-3.186zm1.593-5.375c-3.863 0-7.006 3.25-7.006 7.245 0 4.144 3.275 7.78 7.006 7.78 1.567 0 3.049-.523 4.285-1.513.806-.646.937-1.823.29-2.63-.646-.806-1.822-.937-2.629-.291-.565.453-1.238.692-1.946.692-1.149 0-2.255-.92-2.838-2.167h7.973c1.033 0 1.87-.838 1.87-1.87 0-3.996-3.143-7.246-7.005-7.246zM101.82 2.46c-1.18 0-2.138 1.03-2.138 2.3v16.31c0 1.27.958 2.301 2.138 2.301 1.181 0 2.138-1.03 2.138-2.301V4.76c0-1.27-.957-2.3-2.138-2.3M77.975 15.814c-.023 1.776-1.364 3.214-3.014 3.214-1.66 0-3.014-1.46-3.014-3.256 0-1.795 1.354-3.256 3.014-3.256 1.65 0 2.991 1.438 3.014 3.214v.084zm2.15-7.6c-.712 0-1.338.35-1.73.884-1.023-.561-2.192-.884-3.434-.884-4.04 0-7.316 3.383-7.316 7.558s3.276 7.558 7.316 7.558c1.057 0 2.06-.238 2.968-.658-.234 1.346-1.411 2.377-2.83 2.377-.818 0-1.595-.358-2.137-.954-.02-.03-.046-.057-.073-.084-.392-.389-.93-.63-1.522-.63-1.192 0-2.153.964-2.153 2.152 0 .592.238 1.126.627 1.514l.003.004c1.342 1.446 3.245 2.3 5.256 2.3 3.955 0 7.177-3.222 7.177-7.178V10.367c0-1.188-.965-2.153-2.153-2.153zM93.994 15.814c-.023 1.776-1.365 3.214-3.014 3.214-1.661 0-3.014-1.46-3.014-3.256 0-1.795 1.353-3.256 3.014-3.256 1.649 0 2.99 1.438 3.014 3.214v.084zm2.148-7.6c-.71 0-1.337.35-1.729.884-1.023-.561-2.192-.884-3.433-.884-4.04 0-7.316 3.383-7.316 7.558s3.275 7.558 7.316 7.558c1.057 0 2.06-.238 2.968-.658-.234 1.346-1.411 2.377-2.83 2.377-.819 0-1.595-.358-2.137-.954-.02-.03-.046-.057-.073-.084-.392-.389-.93-.63-1.523-.63-1.191 0-2.153.964-2.153 2.152 0 .592.239 1.126.627 1.514l.004.004c1.342 1.446 3.245 2.3 5.255 2.3 3.956 0 7.178-3.222 7.178-7.178V10.367c0-1.188-.965-2.153-2.154-2.153z" transform="translate(-24 -25) translate(24 23) translate(0 2)"/>
                </g>
            </g>
        </g>
    </g>
</svg>
