<svg xmlns="http://www.w3.org/2000/svg" xmlns:xlink="http://www.w3.org/1999/xlink" width="123" height="23" viewBox="0 0 123 23">
    <defs>
        <path id="pwkh6ci4ga" d="M0 0.523L50.933 0.523 50.933 17.4 0 17.4z"/>
        <path id="t7x2idqg0c" d="M0.539 0.301L37.981 0.301 37.981 11.739 0.539 11.739z"/>
    </defs>
    <g fill="none" fill-rule="evenodd">
        <g>
            <g>
                <g>
                    <g transform="translate(-317 -129) translate(318 129) translate(0 2) translate(0 .077)">
                        <mask id="0fuuwny9xb" fill="#fff">
                            <use xlink:href="#pwkh6ci4ga"/>
                        </mask>
                        <path fill="#044DA1" d="M50.9 4.542C50.213.572 38.262-.666 24.21 1.775 18.314 2.801 12.985 4.312 8.838 6.012c.638.019 1.11.164 1.396.448.223.224.341.533.341.917v.392h-1.38v-.347c0-.287-.175-.47-.482-.47-.259 0-.42.119-.471.345-.012.065-.018.177.008.279.147.601 2.191.973 2.413 2.082.032.142.07.448.006.885-.127.895-.914 1.243-1.917 1.243-1.402 0-1.969-.664-1.969-1.575l.003-.433h1.472l.006.538c0 .303.217.47.518.47.283 0 .448-.115.507-.347.026-.11.041-.265-.01-.388-.274-.685-2.182-1.002-2.418-2.108-.054-.251-.058-.462-.014-.73.025-.143.07-.269.122-.382C2.367 8.98-.324 11.341.032 13.383c.691 3.969 12.642 5.206 26.687 2.765 6.174-1.072 11.727-2.681 15.955-4.479-.062.004-.124.01-.187.01-.96 0-1.818-.358-1.908-1.339-.013-.182-.019-.255-.019-.357V7.728c0-.096.013-.266.024-.355.113-.947.865-1.338 1.908-1.338.803 0 1.79.23 1.896 1.34.017.137.017.286.017.337v.213h-1.392v-.32c0-.006-.004-.124-.017-.2-.025-.112-.123-.374-.518-.374-.392 0-.492.262-.518.375-.014.062-.023.152-.023.25v2.45c0 .085.004.15.015.201.004.04.075.375.53.375s.523-.336.531-.375c.01-.068.013-.146.01-.201v-.758h-.547V8.53h1.936v1.452c0 .1-.001.172-.02.357-.021.257-.102.474-.233.659 4.485-2.123 7.094-4.448 6.742-6.457zm-36.424 7.032l-.705-4.777h-.025l-.722 4.777h-1.487l.999-5.395h2.425l.989 5.395h-1.474zm7.144 0l-.035-4.686h-.02l-.875 4.686h-1.393l-.872-4.686H18.4l-.031 4.686h-1.38l.119-5.395h2.224l.645 4.008h.032l.647-4.008h2.222l.119 5.395H21.62zm6.503-1.045c-.146 1.045-1.174 1.227-1.9 1.227-1.2 0-1.946-.515-1.946-1.559v-.426h1.46v.532c0 .29.202.466.518.466.282 0 .445-.116.503-.345.025-.108.037-.266-.01-.384-.268-.671-2.165-.998-2.395-2.088-.053-.246-.058-.457-.012-.721.16-.988 1.106-1.193 1.872-1.193.683 0 1.182.149 1.48.449.224.22.334.526.334.905v.39h-1.364V7.44c0-.295-.182-.465-.478-.465-.257 0-.415.116-.465.343-.014.048-.024.16.004.27.145.6 2.173.965 2.395 2.066.029.14.068.44.004.875zm5.055-.491c.002.102-.009.303-.015.357-.083.887-.72 1.338-1.887 1.338-1.175 0-1.811-.45-1.894-1.338-.006-.054-.018-.255-.015-.356V6.178h1.396v3.983c0 .09.004.155.014.199.016.092.105.381.5.381.39 0 .478-.29.498-.379.006-.046.013-.115.013-.201V6.178h1.39v3.86zm6.013 1.482h-1.942l-1.304-4.272h-.022l.07 4.272h-1.352V6.18h2.026l1.203 4.105h.028l-.07-4.106h1.363v5.341z" mask="url(#0fuuwny9xb)"/>
                    </g>
                    <g transform="translate(-317 -129) translate(318 129) translate(0 2) translate(59.521 3.077)">
                        <mask id="vary976ipd" fill="#fff">
                            <use xlink:href="#t7x2idqg0c"/>
                        </mask>
                        <path fill="#044DA1" d="M3.51 3.519s1.065 2.011 2.127 2.35l.786-.786S4.125 3.656 4.236.58H2.782S3.115 3.573.539 5.026l.783.898s1.512-.841 2.189-2.405zm9.416 0s1.067 2.011 2.13 2.35l.784-.786S13.543 3.656 13.657.58h-1.461s.337 2.993-2.24 4.446l.782.898s1.514-.841 2.188-2.405zm-3.98 0h1.176V2.23H8.945V.357H7.543v5.676h1.402V3.52zm-6.67 7.884h6.726v-4.81H2.275v4.81zm1.399-1.285h3.87V7.826h-3.87v2.292zm13.455-3.97h1.512V.384H17.13V2.23H15.39v1.289h1.739v2.628zm-2.074 0c-2.043 0-3.701 1.252-3.701 2.795 0 1.546 1.658 2.796 3.701 2.796 2.044 0 3.698-1.25 3.698-2.796 0-1.543-1.654-2.796-3.698-2.796zm0 4.363c-1.269 0-2.299-.7-2.299-1.568 0-.864 1.03-1.566 2.3-1.566 1.267 0 2.296.702 2.296 1.566 0 .867-1.029 1.568-2.297 1.568zM25.48 1.28h-2.016V.3h-1.456v.925H19.82V2.4h5.659V1.28zm3.476 3.32h-1.343V.384h-1.345v11.018h1.345V5.717h1.343V4.6zm3.252-2.468h1.68V.89h-4.483v1.243h1.57s.335 5.134-2.24 6.869l.895.95s1.4-.895 1.906-2.63c0 0 1.01 2.072 1.849 2.63l.952-.95s-2.282-1.406-2.13-6.869zM36.579.385V4.32h-.673V.385H34.56v11.018h1.345V5.438h.673v5.965h1.403V.385h-1.403zM23.408 7.61c1.235-.252 2.153-1.188 2.153-2.306 0-1.31-1.261-2.373-2.82-2.373-1.555 0-2.816 1.064-2.816 2.373 0 1.098.883 2.016 2.082 2.29v.904h-2.244v1.17h5.943V8.553h-2.298V7.61zM21.24 5.304c0-.705.673-1.276 1.5-1.276.832 0 1.5.571 1.5 1.276 0 .708-.668 1.278-1.5 1.278-.827 0-1.5-.57-1.5-1.278z" mask="url(#vary976ipd)"/>
                    </g>
                </g>
            </g>
        </g>
    </g>
</svg>
